<svg xmlns="http://www.w3.org/2000/svg" width="300" height="300" viewBox="0 0 300 300"><defs><style>.a{fill:#61a9c8;}</style></defs><title>dadi</title><path class="a" d="M283.33,0H234.82a65,65,0,0,1,3.46,21.78q0,20.19-11.44,34a55.77,55.77,0,0,1-29.2,18.64v1a62.29,62.29,0,0,1,18.78,7.67,60.83,60.83,0,0,1,14.68,12.62,56.28,56.28,0,0,1,9.56,16.37,54.12,54.12,0,0,1,3.42,19.27q0,19.79-8,34.27a72.16,72.16,0,0,1-21,23.87,92.54,92.54,0,0,1-29.2,14,120.2,120.2,0,0,1-33,4.6A135.51,135.51,0,0,1,121,204.38a100.82,100.82,0,0,1-28.35-11.44,80.64,80.64,0,0,1-36.71-49l53.28-14q3.41,12,14,21t27,9a47.51,47.51,0,0,0,12.46-1.71A34.26,34.26,0,0,0,173.91,153a28.68,28.68,0,0,0,8.2-9.39q3.24-5.8,3.24-14.34,0-9.22-4.27-15.37a30.28,30.28,0,0,0-11.27-9.73A55.4,55.4,0,0,0,153.93,99a104,104,0,0,0-17.76-1.54H120.8V55.82h16.73a99.57,99.57,0,0,0,15.71-1.2,41.63,41.63,0,0,0,13.49-4.47,26.22,26.22,0,0,0,9.56-8.76q3.58-5.5,3.58-14.43,0-13.05-9.22-19.93A34.51,34.51,0,0,0,149.49.16,32.85,32.85,0,0,0,128.14,7.5a33.89,33.89,0,0,0-11.78,19.64L63.09,14.84A85.21,85.21,0,0,1,68.88,0H16.67A16.67,16.67,0,0,0,0,16.67V283.33A16.67,16.67,0,0,0,16.67,300H283.33A16.67,16.67,0,0,0,300,283.33V16.67A16.67,16.67,0,0,0,283.33,0Z"/></svg>