<svg xmlns="http://www.w3.org/2000/svg" width="300" height="300" viewBox="0 0 300 300"><defs><style>.a{fill:#aa7fb3;}</style></defs><title>dadi</title><path class="a" d="M283.33,0H16.67A16.67,16.67,0,0,0,0,16.67V283.33A16.67,16.67,0,0,0,16.67,300H63.08a79.6,79.6,0,0,1-5.63-14.33l52.25-16.05a40.62,40.62,0,0,0,14.17,20.83q10.41,8.2,24.76,8.2a38.71,38.71,0,0,0,25.44-8.88q10.76-8.88,10.76-26.3,0-10.58-4.44-17.76A34.44,34.44,0,0,0,169,234.27a47.54,47.54,0,0,0-15.88-6,94,94,0,0,0-17.76-1.71,173.46,173.46,0,0,0-29.54,2.9,171.33,171.33,0,0,0-29.54,7.68L82,98.86H230.25V148H132.92l-2,38.25A73.63,73.63,0,0,1,143,184.41q6.66-.51,12.12-0.51a119.13,119.13,0,0,1,34.15,4.78,78.23,78.23,0,0,1,27.83,14.51,69.61,69.61,0,0,1,18.61,24.08q6.83,14.34,6.83,33.47,0,22.2-7.85,38.42c-0.14.29-.29,0.56-0.44,0.85h49.07A16.67,16.67,0,0,0,300,283.33V16.67A16.67,16.67,0,0,0,283.33,0Z"/></svg>