<?xml version="1.0" encoding="utf-8"?>
<!-- Generator: Adobe Illustrator 19.2.0, SVG Export Plug-In . SVG Version: 6.00 Build 0)  -->
<svg version="1.1" id="Layer_1" xmlns="http://www.w3.org/2000/svg" xmlns:xlink="http://www.w3.org/1999/xlink" x="0px" y="0px"
	 viewBox="0 0 300 300" style="enable-background:new 0 0 300 300;" xml:space="preserve">
<style type="text/css">
	.st0{fill:#FFFFFF;}
</style>
<title>dadi</title>
<g>
	<path class="st0" d="M16.7,299C8,299,1,292,1,283.3V16.7C1,8,8,1,16.7,1h266.7C292,1,299,8,299,16.7v266.7c0,8.7-7,15.7-15.7,15.7
		C283.3,299,16.7,299,16.7,299z"/>
	<path d="M283.3,2c8.1,0,14.7,6.6,14.7,14.7l0,266.7c0,8.1-6.6,14.6-14.7,14.6H16.7C8.6,298,2,291.4,2,283.3V16.7
		C2,8.6,8.6,2,16.7,2H283.3 M283.3,0H16.7C7.5,0,0,7.5,0,16.7v266.7c0,9.2,7.5,16.7,16.7,16.7h266.6c0,0,0,0,0,0
		c9.2,0,16.6-7.4,16.7-16.6c0,0,0,0,0,0V16.7C300,7.5,292.5,0,283.3,0L283.3,0z"/>
</g>
</svg>
