<svg xmlns="http://www.w3.org/2000/svg" width="300" height="300" viewBox="0 0 300 300"><defs><style>.a{fill:#c25379;}</style></defs><title>dadi</title><path class="a" d="M55.75,123.79A37,37,0,0,0,61.21,104q0-13-8.2-21T31.16,75Q16.82,75,7.77,85.11A40,40,0,0,0,0,98.2v80.42l41.4-37.44A89.35,89.35,0,0,0,55.75,123.79Z"/><path class="a" d="M283.33,0H16.67A16.67,16.67,0,0,0,0,16.67V31.41l0.59-.21a105,105,0,0,1,33.64-5.33A118.89,118.89,0,0,1,66.68,30.3,84.56,84.56,0,0,1,94.68,44a68.25,68.25,0,0,1,19.64,23.22q7.34,14,7.34,32.79a75,75,0,0,1-3.41,23.39,77.88,77.88,0,0,1-9.39,19.3,111.07,111.07,0,0,1-13.66,16.56q-7.68,7.68-15.88,15.2l-56,49.86H122v49.86H0v9.19A16.67,16.67,0,0,0,16.67,300H283.33A16.67,16.67,0,0,0,300,283.33V16.67A16.67,16.67,0,0,0,283.33,0Z"/></svg>