<svg xmlns="http://www.w3.org/2000/svg" width="300" height="300" viewBox="0 0 300 300"><defs><style>.a{fill:#38393b;}</style></defs><title>dadi</title><path class="a" d="M54.89,287.81q17.14,0,27.61-10.59t10.46-28q0-16.39-10.29-27.15T55.23,211.31q-17.15,0-27.79,10.59T16.81,249.56a38.62,38.62,0,0,0,10.29,27Q37.39,287.81,54.89,287.81Z"/><path class="a" d="M283.33,0H16.67A16.67,16.67,0,0,0,0,16.67v138L45.09,87.35h69.27L54.89,170l-1,1.71a36.14,36.14,0,0,1,8.18-2,63.13,63.13,0,0,1,8.86-.68,82.51,82.51,0,0,1,30.17,5.63,74.69,74.69,0,0,1,25.22,16.05,79.47,79.47,0,0,1,17.22,24.93A78.37,78.37,0,0,1,150,247.85q0,20.49-7.5,36.88a84.27,84.27,0,0,1-9,15.26H283.33A16.67,16.67,0,0,0,300,283.33V16.67A16.67,16.67,0,0,0,283.33,0Z"/></svg>