<svg xmlns="http://www.w3.org/2000/svg" xmlns:xlink="http://www.w3.org/1999/xlink" width="299.6" height="299.6" viewBox="0 0 299.6 299.6"><defs><style>.a{fill:#333;}.b{isolation:isolate;}.c{fill:#fff;}</style><symbol id="a" viewBox="0 0 214 214"><rect class="a" width="214" height="214" rx="11.89" ry="11.89"/></symbol></defs><title>3</title><use width="214" height="214" transform="matrix(1.4, 0, 0, -1.4, 0, 299.6)" xlink:href="#a"/><g class="b"><path class="c" d="M136.3,145.37h5.44A49.31,49.31,0,0,0,153,144.14a26.73,26.73,0,0,0,9.22-4,19.29,19.29,0,0,0,6.23-7.11,22.59,22.59,0,0,0,2.28-10.53,23.13,23.13,0,0,0-1.93-9.57,21.81,21.81,0,0,0-5.36-7.37,24.59,24.59,0,0,0-7.9-4.74,26.71,26.71,0,0,0-9.39-1.67,25.29,25.29,0,0,0-23.7,14.57l-10.71-5.62a37.83,37.83,0,0,1,14.75-14.84,42.24,42.24,0,0,1,20.37-4.83,43.88,43.88,0,0,1,14,2.19,35.52,35.52,0,0,1,11.64,6.41,30.16,30.16,0,0,1,8,10.45,33.2,33.2,0,0,1,2.94,14.31q0,11.06-6.14,18.52a29.22,29.22,0,0,1-15.45,9.92v0.35a32.23,32.23,0,0,1,17.82,10.27q7.11,8,7.11,20.63a37.08,37.08,0,0,1-3.25,15.89,35.85,35.85,0,0,1-8.69,11.76A37.63,37.63,0,0,1,162,216.56a46.3,46.3,0,0,1-15.36,2.55q-13.69,0-23.88-6.58a41,41,0,0,1-15.45-18.87l11.94-4.39a27.34,27.34,0,0,0,10.53,14,30.38,30.38,0,0,0,27.13,3.16,26.61,26.61,0,0,0,8.78-5.27,25.77,25.77,0,0,0,6.06-8.34,26.42,26.42,0,0,0,2.28-11.24,23.84,23.84,0,0,0-2.72-11.85,22.29,22.29,0,0,0-7.29-7.81,31.55,31.55,0,0,0-10.36-4.3,53.71,53.71,0,0,0-11.94-1.32H136.3V145.37Z"/></g></svg>