<svg xmlns="http://www.w3.org/2000/svg" xmlns:xlink="http://www.w3.org/1999/xlink" width="299.6" height="299.6" viewBox="0 0 299.6 299.6"><defs><style>.a{fill:#333;}.b{isolation:isolate;}.c{fill:#fff;}</style><symbol id="a" viewBox="0 0 214 214"><rect class="a" width="214" height="214" rx="11.89" ry="11.89"/></symbol></defs><title>5</title><use width="214" height="214" transform="matrix(1.4, 0, 0, -1.4, 0, 299.6)" xlink:href="#a"/><g class="b"><path class="c" d="M182.13,102.88h-51.8l-0.88,38.45a48.8,48.8,0,0,1,8.49-2.11,55.87,55.87,0,0,1,8.66-.7,44.81,44.81,0,0,1,16.1,2.81,37.9,37.9,0,0,1,12.78,8,35.83,35.83,0,0,1,8.4,12.38,41,41,0,0,1,3,15.8,45.79,45.79,0,0,1-2.94,16.59A37.65,37.65,0,0,1,162.55,216a43.43,43.43,0,0,1-16.77,3.16q-13.52,0-22.83-6.14a41,41,0,0,1-14.4-16.5L120,191.37a27.73,27.73,0,0,0,10.1,12.29,26.21,26.21,0,0,0,15,4.57A30.48,30.48,0,0,0,156.76,206a27.11,27.11,0,0,0,9.22-6.15,28.56,28.56,0,0,0,6.06-9.39,33.08,33.08,0,0,0-.18-24.14,27.6,27.6,0,0,0-6.5-9.39,29,29,0,0,0-9.75-6,34.75,34.75,0,0,0-12.29-2.11,48.93,48.93,0,0,0-13.26,1.84,63,63,0,0,0-12.55,5l1.23-64.09h63.38v11.24Z"/></g></svg>