<svg xmlns="http://www.w3.org/2000/svg" width="584.83" height="398.89" viewBox="0 0 584.83 398.89"><defs><style>.a{fill:#e5e3c7;}.b{fill:#fff;stroke:#fff;stroke-miterlimit:10;stroke-width:0.25px;}</style></defs><title>logo</title><path class="a" d="M586.6,398.89L216.69,29a44.92,44.92,0,0,0-4.84-4.59,12.91,12.91,0,0,0-5.27-2.2A15.51,15.51,0,0,0,195,24.43a13.91,13.91,0,0,0-3.8,4.14,30.83,30.83,0,0,0-5.11-4.72,12.22,12.22,0,0,0-5.31-1.8,15.29,15.29,0,0,0-6.45.56A12.36,12.36,0,0,0,171.48,24a28.14,28.14,0,0,0-2.33,1.9,0.84,0.84,0,0,0,0-.31,2.17,2.17,0,0,0-.27,0,1.42,1.42,0,0,1-.08-0.18s0-.13,0-0.16-0.1,0-.12,0a1.89,1.89,0,0,1-.23,0,2.31,2.31,0,0,0,0-.31c-0.06-.05-0.25.05-0.31,0a2.73,2.73,0,0,1,0-.31,1.51,1.51,0,0,0-.23,0s-0.1,0-.12,0,0-.15,0-0.18-0.08-.17-0.08-0.18-0.22,0-.27,0,0.05-.26,0-0.31-0.27.05-.33,0,0-.23,0-0.27-0.2-.05-0.23-0.08-0.1,0-.12,0,0-.1,0-0.12,0-.19,0-0.23a0.78,0.78,0,0,0-.21,0,6.55,6.55,0,0,0-1.21,0h-7.35c-0.51,0-.37.12-0.37,0.62V37.2c-2.46-2.44-33.32-32.3-33.24-32.42H113.66a1.71,1.71,0,0,0-1.13.12,8.72,8.72,0,0,0-1.06,1.76l-2,3.25-4.79,7.93-2.92,4.84c-0.11,0-17.8-17.84-18.06-17.91a7.1,7.1,0,0,0-1.55,0H71.55L75,9.95l7.57,11.28L90,32.32l2.34,3.49A5.09,5.09,0,0,1,93.12,37a5.63,5.63,0,0,1,0,1.36V92.7c0,2,.12,4,0,6,0,0.09,0,.18,0,0.27l-5.81-5.81c-1.88-1.88-3.69-3.9-5.7-5.64a21.78,21.78,0,0,0-14.09-5,23.42,23.42,0,0,0-7.76,1.25l-0.88.33a4.1,4.1,0,0,1-.9.38,2.48,2.48,0,0,1-1-.89c-0.7-.66-1.33-1.35-2-2-2.71-2.6-5.25-5.35-8-8-1.34-1.28-2.54-2.7-4-4a21.44,21.44,0,0,0-6.13-3.77,27.54,27.54,0,0,0-15.94-1.37c-4.78,1-9.37,3.29-12.23,7.37-2.75,3.92-2.34,9-.95,13.53,0.68,2.2,1,4.47,2.64,6.09l6,6,11.91,11.91c1,1,1.94,1.93,2.9,2.9-3.42,3.25-9,3.28-13.17,1.71a17.5,17.5,0,0,1-3.14-1.54A8.42,8.42,0,0,1,13,111a25.47,25.47,0,0,1-2.2-2.23l-4.3,4L4,115.1a1.87,1.87,0,0,0-.44.41,4.76,4.76,0,0,0,1.08,1.17l1.49,1.49L286.89,398.89H586.6Z"/><path class="b" d="M38.2,93.81a22,22,0,0,0-5.37-3q-2.93-1.12-5.65-2-2.41-.72-4.41-1.44a15,15,0,0,1-3.41-1.68,7.28,7.28,0,0,1-2.21-2.33,6.37,6.37,0,0,1-.8-3.29,6.62,6.62,0,0,1,.92-3.57,7.52,7.52,0,0,1,2.37-2.41,10.77,10.77,0,0,1,3.21-1.36,14.54,14.54,0,0,1,3.53-.44,13.53,13.53,0,0,1,5.89,1.4,12.28,12.28,0,0,1,4.53,3.49L43.37,70a21.47,21.47,0,0,0-7.74-4.57,27,27,0,0,0-8.78-1.52,29.08,29.08,0,0,0-7.58,1,21.08,21.08,0,0,0-6.66,3,16,16,0,0,0-4.73,5.17,14.67,14.67,0,0,0-1.8,7.46,15.49,15.49,0,0,0,1.28,6.69,14.31,14.31,0,0,0,3.33,4.53,17,17,0,0,0,4.61,3,49.52,49.52,0,0,0,5.13,1.92l5.05,1.68a20.17,20.17,0,0,1,4.17,1.88,9.34,9.34,0,0,1,2.81,2.57,6.34,6.34,0,0,1,1,3.73,7.55,7.55,0,0,1-.92,3.89,8.3,8.3,0,0,1-2.41,2.61,9.6,9.6,0,0,1-3.33,1.48,15.48,15.48,0,0,1-3.61.44,15.69,15.69,0,0,1-6.86-1.68,14.49,14.49,0,0,1-5.57-4.57L3.6,115.46a20.9,20.9,0,0,0,8.66,6.05,29.8,29.8,0,0,0,10.82,2A27.69,27.69,0,0,0,31,122.44a19.15,19.15,0,0,0,6.57-3.37,16.45,16.45,0,0,0,4.49-5.65,17.81,17.81,0,0,0,1.68-8,14.18,14.18,0,0,0-1.56-7A14.72,14.72,0,0,0,38.2,93.81Z"/><path class="b" d="M82.23,88A19.62,19.62,0,0,0,75.57,84a23.9,23.9,0,0,0-16.36,0A19.61,19.61,0,0,0,52.56,88a19.38,19.38,0,0,0-4.45,6.37,20.35,20.35,0,0,0-1.64,8.3,20.63,20.63,0,0,0,1.64,8.34,19.72,19.72,0,0,0,4.45,6.45,20.3,20.3,0,0,0,6.65,4.21,22.72,22.72,0,0,0,16.36,0,20.31,20.31,0,0,0,6.65-4.21,19.75,19.75,0,0,0,4.45-6.45,20.65,20.65,0,0,0,1.64-8.34,20.37,20.37,0,0,0-1.64-8.3A19.41,19.41,0,0,0,82.23,88ZM77.86,107.2a12.36,12.36,0,0,1-2,4,10.7,10.7,0,0,1-3.45,2.89,11.57,11.57,0,0,1-9.94,0A10.68,10.68,0,0,1,59,111.21a12.31,12.31,0,0,1-2-4,15.37,15.37,0,0,1-.68-4.49,15,15,0,0,1,.68-4.45,12.41,12.41,0,0,1,2-4,10.27,10.27,0,0,1,3.45-2.85,12,12,0,0,1,9.94,0,10.29,10.29,0,0,1,3.45,2.85,12.46,12.46,0,0,1,2,4,15,15,0,0,1,.68,4.45A15.41,15.41,0,0,1,77.86,107.2Z"/><path class="b" d="M143.4,88A19.63,19.63,0,0,0,136.75,84a23.9,23.9,0,0,0-16.36,0A19.61,19.61,0,0,0,113.73,88a19.37,19.37,0,0,0-4.45,6.37,20.35,20.35,0,0,0-1.64,8.3,20.63,20.63,0,0,0,1.64,8.34,19.71,19.71,0,0,0,4.45,6.45,20.29,20.29,0,0,0,6.65,4.21,22.72,22.72,0,0,0,16.36,0,20.31,20.31,0,0,0,6.65-4.21,19.75,19.75,0,0,0,4.45-6.45,20.65,20.65,0,0,0,1.64-8.34,20.37,20.37,0,0,0-1.64-8.3A19.41,19.41,0,0,0,143.4,88ZM139,107.2a12.37,12.37,0,0,1-2,4,10.7,10.7,0,0,1-3.45,2.89,11.57,11.57,0,0,1-9.94,0,10.67,10.67,0,0,1-3.45-2.89,12.31,12.31,0,0,1-2-4,15.37,15.37,0,0,1-.68-4.49,15,15,0,0,1,.68-4.45,12.41,12.41,0,0,1,2-4,10.26,10.26,0,0,1,3.45-2.85,12,12,0,0,1,9.94,0A10.29,10.29,0,0,1,137,94.29a12.46,12.46,0,0,1,2,4,15,15,0,0,1,.68,4.45A15.41,15.41,0,0,1,139,107.2Z"/><polygon class="b" points="112.6 4.74 98.17 28.63 83.9 4.74 71.55 4.74 93.12 36.89 93.12 122.12 102.74 122.12 102.74 36.89 124.31 4.74 112.6 4.74"/><path class="b" d="M147.44,27.1a13.78,13.78,0,0,0-5.25-3.77,21.39,21.39,0,0,0-8.46-1.44,25.83,25.83,0,0,0-8.7,1.52A21.71,21.71,0,0,0,117.45,28l5,5.85a15.75,15.75,0,0,1,4.65-3.13,13.93,13.93,0,0,1,5.85-1.28,11,11,0,0,1,6.21,1.72,6,6,0,0,1,2.61,5.33v1q-4.49,0-9.18.44a35.53,35.53,0,0,0-8.54,1.8,15.82,15.82,0,0,0-6.29,3.93,9.58,9.58,0,0,0-2.45,6.9,10.61,10.61,0,0,0,1.4,5.65,11.63,11.63,0,0,0,3.53,3.69,14.41,14.41,0,0,0,4.65,2,20.93,20.93,0,0,0,4.85.6,15.78,15.78,0,0,0,7.3-1.64,10.74,10.74,0,0,0,4.65-4.21h0.24V61.5h9V38.09a22.58,22.58,0,0,0-.76-5.77A13.5,13.5,0,0,0,147.44,27.1Zm-5.69,18.2a9.93,9.93,0,0,1-2.57,7.22q-2.57,2.65-7.54,2.65a12.26,12.26,0,0,1-2.41-.24,7,7,0,0,1-2.16-.8,4.6,4.6,0,0,1-1.56-1.48,4.09,4.09,0,0,1-.6-2.28,4.26,4.26,0,0,1,1.44-3.41A10.12,10.12,0,0,1,130,45a21.29,21.29,0,0,1,4.73-.88q2.57-.2,4.89-0.2h2.17v1.36Z"/><path class="b" d="M216.88,31.67a14.12,14.12,0,0,0-2.53-5,12.74,12.74,0,0,0-4.41-3.49,16.19,16.19,0,0,0-14,.56,13.74,13.74,0,0,0-5.13,5.41,13.32,13.32,0,0,0-4.57-5.29,13,13,0,0,0-7.46-2,14.19,14.19,0,0,0-4.25.6,12.25,12.25,0,0,0-3.41,1.64,13.46,13.46,0,0,0-2.57,2.33,11.41,11.41,0,0,0-1.72,2.73h-0.16V23h-9.14V61.5h9.62V40.33a14.19,14.19,0,0,1,.52-3.81,10.84,10.84,0,0,1,1.52-3.33,7.93,7.93,0,0,1,2.61-2.37,7.44,7.44,0,0,1,3.77-.92A6.25,6.25,0,0,1,181,32.28a9.88,9.88,0,0,1,1.72,6V61.5h9.62v-21a15,15,0,0,1,.48-3.73,10.64,10.64,0,0,1,1.52-3.41A8.39,8.39,0,0,1,197,30.87a7.34,7.34,0,0,1,3.85-1,6.48,6.48,0,0,1,3.73,1,6.93,6.93,0,0,1,2.21,2.45,9.56,9.56,0,0,1,1,3.33,27.36,27.36,0,0,1,.24,3.53V61.5h9.62V37.45A21,21,0,0,0,216.88,31.67Z"/></svg>