<svg xmlns="http://www.w3.org/2000/svg" width="584.83" height="398.89" viewBox="0 0 584.83 398.89"><defs><style>.a{fill:#1a171b;}</style></defs><title>logo</title><path class="a" d="M101.67,22.59C100.4,21.38,87.78,8.67,84.5,5.5L98.17,28.39Z"/><path class="a" d="M56.37,102.71a15.32,15.32,0,0,0,.68,4.45,12.27,12.27,0,0,0,2,4A10.61,10.61,0,0,0,62.48,114a11.44,11.44,0,0,0,9.82,0,10.62,10.62,0,0,0,3.41-2.85,12.31,12.31,0,0,0,2-4,15.34,15.34,0,0,0,.68-4.45,15,15,0,0,0-.68-4.41,12.39,12.39,0,0,0-2-3.93,10.23,10.23,0,0,0-3.41-2.81,11.83,11.83,0,0,0-9.83,0,10.2,10.2,0,0,0-3.41,2.81,12.34,12.34,0,0,0-2,3.93A14.93,14.93,0,0,0,56.37,102.71Z"/><path class="a" d="M191.12,28.47c-0.59-.62-1.19-1.26-1.81-1.88a13.86,13.86,0,0,1,1.52,2.33C190.92,28.76,191,28.63,191.12,28.47Z"/><path class="a" d="M32.48,110.39a7.47,7.47,0,0,0,.9-3.83,6.24,6.24,0,0,0-1-3.66,9.25,9.25,0,0,0-2.77-2.53,20.12,20.12,0,0,0-4.14-1.87L20.4,96.82a50,50,0,0,1-5.14-1.93,17.22,17.22,0,0,1-4-2.45l5.06,5.06,11.91,11.91c0.93,0.93,1.86,1.85,2.78,2.79A8.22,8.22,0,0,0,32.48,110.39Z"/><path class="a" d="M166.82,29a11.67,11.67,0,0,1,1.66-2.58c0.21-.24.45-0.47,0.68-0.7,0-.05-2.31-2.24-2.34-2.27V29Z"/><path class="a" d="M216.69,29s-0.94-1-2.08-2.15a14.34,14.34,0,0,1,2.4,4.81,21.16,21.16,0,0,1,.81,5.81V61.63h-9.87V40.17a27.26,27.26,0,0,0-.24-3.51,9.47,9.47,0,0,0-1-3.28,6.83,6.83,0,0,0-2.17-2.4,6.4,6.4,0,0,0-3.66-.94,7.26,7.26,0,0,0-3.78.94,8.3,8.3,0,0,0-2.61,2.45A10.55,10.55,0,0,0,193,36.8a15,15,0,0,0-.48,3.7V61.63H182.6V38.25a9.82,9.82,0,0,0-1.7-5.9A6.16,6.16,0,0,0,175.59,30a7.34,7.34,0,0,0-3.71.91,7.84,7.84,0,0,0-2.57,2.33,10.78,10.78,0,0,0-1.5,3.29,14.14,14.14,0,0,0-.52,3.77V61.63h-9.87V37.08c-1-.95-4.45-4.34-8.85-8.61a13.64,13.64,0,0,1,1.68,3.82,22.83,22.83,0,0,1,.77,5.8V61.63h-9.23V56.74h0a11,11,0,0,1-4.67,4.2,16,16,0,0,1-7.35,1.66,21.17,21.17,0,0,1-4.88-.6,14.61,14.61,0,0,1-4.69-2,11.81,11.81,0,0,1-3.56-3.73,10.78,10.78,0,0,1-1.42-5.72,9.74,9.74,0,0,1,2.48-7,16,16,0,0,1,6.34-4,35.84,35.84,0,0,1,8.57-1.81c3.08-.29,6.13-0.44,9.07-0.44V36.49a5.85,5.85,0,0,0-2.55-5.23,10.94,10.94,0,0,0-6.14-1.7,13.88,13.88,0,0,0-5.8,1.27,15.67,15.67,0,0,0-4.61,3.1l-0.1.1-0.09-.1-5-5.94,0.09-.08A21.92,21.92,0,0,1,125,23.3a26.08,26.08,0,0,1,8.74-1.53,21.61,21.61,0,0,1,8.51,1.45,16.9,16.9,0,0,1,2,1.06c-8.9-8.65-19.07-18.53-19.88-19.41L102.87,36.92v85.32H93V98.86l-5.69-5.69c-1.12-1.12-2.22-2.28-3.34-3.41a20.11,20.11,0,0,1,2.82,4.61,20.58,20.58,0,0,1,1.65,8.35,20.87,20.87,0,0,1-1.65,8.39,20,20,0,0,1-4.48,6.5,20.53,20.53,0,0,1-6.7,4.23,22.84,22.84,0,0,1-16.45,0,20.52,20.52,0,0,1-6.7-4.23A20,20,0,0,1,48,111.1a20.85,20.85,0,0,1-1.65-8.39A20.57,20.57,0,0,1,48,94.36a19,19,0,0,1,9.75-9.92,5.8,5.8,0,0,1-.81-0.82c-0.7-.66-1.33-1.35-2-2-2.71-2.6-5.25-5.35-8-8-1.19-1.14-2.29-2.39-3.51-3.54l-6.64,7.29-0.09-.12a12.23,12.23,0,0,0-4.49-3.45,13.47,13.47,0,0,0-5.84-1.39,14.49,14.49,0,0,0-3.5.44,10.7,10.7,0,0,0-3.17,1.35,7.44,7.44,0,0,0-2.33,2.37,6.53,6.53,0,0,0-.9,3.5,6.28,6.28,0,0,0,.78,3.22,7.22,7.22,0,0,0,2.17,2.29,14.93,14.93,0,0,0,3.38,1.67c1.32,0.48,2.8,1,4.4,1.44,1.82,0.59,3.72,1.26,5.66,2a22.15,22.15,0,0,1,5.4,3,14.9,14.9,0,0,1,4,4.69,14.36,14.36,0,0,1,1.58,7,18,18,0,0,1-1.7,8,16.65,16.65,0,0,1-4.52,5.7,19.36,19.36,0,0,1-6.62,3.39,27.94,27.94,0,0,1-8,1.13,30.06,30.06,0,0,1-10.87-2.05,22.07,22.07,0,0,1-6.16-3.57l0.1,0.1L286.89,398.89H586.6ZM148,111.1a20,20,0,0,1-4.48,6.5,20.53,20.53,0,0,1-6.7,4.23,22.84,22.84,0,0,1-16.45,0,20.52,20.52,0,0,1-6.7-4.23,19.92,19.92,0,0,1-4.48-6.5,20.85,20.85,0,0,1-1.65-8.39,20.57,20.57,0,0,1,1.65-8.35A19.6,19.6,0,0,1,113.65,88a19.83,19.83,0,0,1,6.7-4.12,24,24,0,0,1,16.45,0,19.83,19.83,0,0,1,6.7,4.12A19.62,19.62,0,0,1,148,94.36a20.58,20.58,0,0,1,1.65,8.35A20.87,20.87,0,0,1,148,111.1Z"/><path class="a" d="M136.89,94.37a10.23,10.23,0,0,0-3.41-2.81,11.83,11.83,0,0,0-9.83,0,10.2,10.2,0,0,0-3.41,2.81,12.34,12.34,0,0,0-2,3.93,14.93,14.93,0,0,0-.68,4.41,15.31,15.31,0,0,0,.68,4.45,12.27,12.27,0,0,0,2,4,10.6,10.6,0,0,0,3.41,2.85,11.44,11.44,0,0,0,9.82,0,10.62,10.62,0,0,0,3.41-2.85,12.31,12.31,0,0,0,2-4,15.35,15.35,0,0,0,.68-4.45,15,15,0,0,0-.68-4.41A12.39,12.39,0,0,0,136.89,94.37Z"/><path class="a" d="M130,45.14a10,10,0,0,0-3.56,1.9,4.16,4.16,0,0,0-1.4,3.31,4,4,0,0,0,.58,2.22A4.51,4.51,0,0,0,127.14,54a6.9,6.9,0,0,0,2.13.79,12.19,12.19,0,0,0,2.38.24c3.26,0,5.77-.88,7.45-2.61a9.85,9.85,0,0,0,2.53-7.13V44.07h-2c-1.53,0-3.17.07-4.88,0.2A21.29,21.29,0,0,0,130,45.14Z"/></svg>