<svg xmlns="http://www.w3.org/2000/svg" xmlns:xlink="http://www.w3.org/1999/xlink" width="299.6" height="299.6" viewBox="0 0 299.6 299.6"><defs><style>.a{fill:#333;}</style><symbol id="a" viewBox="0 0 214 214"><path class="a" d="M202.1,2a9.91,9.91,0,0,1,9.9,9.9V202.1a9.91,9.91,0,0,1-9.9,9.9H11.9A9.91,9.91,0,0,1,2,202.1V11.9A9.91,9.91,0,0,1,11.9,2H202.1m0-2H11.9A11.86,11.86,0,0,0,0,11.9V202.1A11.86,11.86,0,0,0,11.9,214H202.1A11.86,11.86,0,0,0,214,202.1V11.9A11.86,11.86,0,0,0,202.1,0h0Z"/></symbol></defs><title>0</title><use width="214" height="214" transform="matrix(1.4, 0, 0, -1.4, 0, 299.6)" xlink:href="#a"/></svg>