<svg xmlns="http://www.w3.org/2000/svg" xmlns:xlink="http://www.w3.org/1999/xlink" width="299.6" height="299.6" viewBox="0 0 299.6 299.6"><defs><style>.a{fill:#333;}.b{isolation:isolate;}.c{fill:#fff;}</style><symbol id="a" viewBox="0 0 214 214"><rect class="a" width="214" height="214" rx="11.89" ry="11.89"/></symbol></defs><title>2</title><use width="214" height="214" transform="matrix(1.4, 0, 0, -1.4, 0, 299.6)" xlink:href="#a"/><g class="b"><path class="c" d="M187,216H107.68V202.78l50.92-51.44q2.81-2.81,5.53-6.06a52.81,52.81,0,0,0,4.83-6.76,34.17,34.17,0,0,0,3.34-7.46,27.39,27.39,0,0,0,1.23-8.17,24.18,24.18,0,0,0-1.93-9.83,21.57,21.57,0,0,0-5.36-7.46,24.59,24.59,0,0,0-7.9-4.74,26.71,26.71,0,0,0-9.39-1.67,24.12,24.12,0,0,0-16.86,6.23,28.39,28.39,0,0,0-8.78,15.89l-12.47-2.46a35.91,35.91,0,0,1,4.65-12.12,37.15,37.15,0,0,1,8.43-9.66,39,39,0,0,1,11.32-6.32,40.09,40.09,0,0,1,13.7-2.28,46.1,46.1,0,0,1,14.31,2.19,34.37,34.37,0,0,1,11.8,6.5,31.63,31.63,0,0,1,8.08,10.71,34.36,34.36,0,0,1,3,14.84,35.38,35.38,0,0,1-1.67,11.06,48,48,0,0,1-4.39,9.66,56.36,56.36,0,0,1-6.41,8.69q-3.69,4.13-7.73,8.16L121.2,204.71H187V216Z"/></g></svg>