<svg xmlns="http://www.w3.org/2000/svg" xmlns:xlink="http://www.w3.org/1999/xlink" width="299.6" height="299.6" viewBox="0 0 299.6 299.6"><defs><style>.a{fill:#333;}.b{isolation:isolate;}.c{fill:#fff;}</style><symbol id="a" viewBox="0 0 214 214"><path class="a" d="M11.9,214H202.1A11.86,11.86,0,0,0,214,202.1V11.9A11.86,11.86,0,0,0,202.1,0H11.9A11.86,11.86,0,0,0,0,11.9V202.1A11.86,11.86,0,0,0,11.9,214Z"/></symbol></defs><title>6</title><use width="214" height="214" transform="matrix(1.4, 0, 0, -1.4, 0, 299.6)" xlink:href="#a"/><g class="b"><path class="c" d="M134,145.9l0.4,0.4a21.58,21.58,0,0,1,7.9-3.3,43,43,0,0,1,9.8-1.2,38.89,38.89,0,0,1,15,2.8,37.69,37.69,0,0,1,12,7.8,35,35,0,0,1,8,12.1A43.52,43.52,0,0,1,187,196a35.42,35.42,0,0,1-8.4,12.3,39.09,39.09,0,0,1-12.8,8,46.7,46.7,0,0,1-32.4,0,39.09,39.09,0,0,1-12.8-8,35.42,35.42,0,0,1-8.4-12.3,41.1,41.1,0,0,1-3-16,47.88,47.88,0,0,1,3.3-17.9,110.93,110.93,0,0,1,7.9-15.8l33.9-54.6H169ZM121.9,180a31.54,31.54,0,0,0,2,11.3,25.58,25.58,0,0,0,5.7,9,28.61,28.61,0,0,0,8.8,6,29.61,29.61,0,0,0,22.4,0,28.61,28.61,0,0,0,8.8-6,24.71,24.71,0,0,0,5.7-9,31.94,31.94,0,0,0,2-11.3,30.82,30.82,0,0,0-1.9-11.1,26.6,26.6,0,0,0-5.5-9,24.79,24.79,0,0,0-8.8-5.9,32.54,32.54,0,0,0-23,0,24.79,24.79,0,0,0-8.8,5.9,25.66,25.66,0,0,0-5.5,9A30.82,30.82,0,0,0,121.9,180Z" transform="translate(0 0)"/></g></svg>