<svg xmlns="http://www.w3.org/2000/svg" xmlns:xlink="http://www.w3.org/1999/xlink" width="299.6" height="299.6" viewBox="0 0 299.6 299.6"><defs><style>.a{fill:#aeaa7b;}.b{fill:#fff;}</style><symbol id="a" viewBox="0 0 214 214"><path class="a" d="M202.1,214H11.9A11.86,11.86,0,0,1,0,202.18s0-.05,0-0.08V11.9A11.86,11.86,0,0,1,11.82,0H202.1A11.86,11.86,0,0,1,214,11.82s0,0.05,0,.08V202.1A11.86,11.86,0,0,1,202.18,214H202.1Z"/></symbol></defs><title>1</title><use width="214" height="214" transform="translate(0 0) scale(1.4)" xlink:href="#a"/><path class="b" d="M157,126.5l2.16-3.88A45.56,45.56,0,0,1,198.92,99.2h34.81l-11.6-11.6a5.06,5.06,0,0,1,7.15-7.15l20.24,20.24a5.05,5.05,0,0,1,0,7.15l-20.24,20.24a5.06,5.06,0,0,1-7.15-7.15l11.6-11.6H198.92a35.43,35.43,0,0,0-31,18.22l-2.15,3.88A5.06,5.06,0,1,1,157,126.5Zm-16.28,39.71a5.06,5.06,0,0,0-6.88,2l-2.15,3.88a35.44,35.44,0,0,1-31,18.22h-47a5.06,5.06,0,1,0,0,10.12h47A45.57,45.57,0,0,0,140.49,177l2.16-3.89A5.06,5.06,0,0,0,140.68,166.21Zm88.6,5.31a5.06,5.06,0,0,0-7.15,7.15l11.6,11.6H198.92a35.42,35.42,0,0,1-31-18.23l-27.47-49.44A45.58,45.58,0,0,0,100.68,99.2h-47a5.06,5.06,0,1,0,0,10.12h47a35.43,35.43,0,0,1,31,18.22L159.11,177a45.56,45.56,0,0,0,39.81,23.42h34.81L222.12,212a5.06,5.06,0,0,0,7.15,7.15l20.24-20.24a5.05,5.05,0,0,0,0-7.15Z" transform="translate(0 0)"/></svg>